<svg viewBox="-0.5 0 48 48" xmlns="http://www.w3.org/2000/svg"><path d="M9.827 24c0-1.524.253-2.986.705-4.356l-7.909-6.04A23.4 23.4 0 0 0 .214 24c0 3.737.867 7.261 2.406 10.388l7.905-6.051A14.1 14.1 0 0 1 9.827 24" fill="#FBBC05"/><path d="M23.714 10.133c3.311 0 6.302 1.174 8.652 3.094L39.202 6.4C35.036 2.773 29.695.533 23.714.533c-9.287 0-17.269 5.311-21.091 13.071l7.909 6.04c1.823-5.532 7.017-9.511 13.182-9.511" fill="#EB4335"/><path d="M23.714 37.867c-6.165 0-11.359-3.979-13.182-9.511l-7.909 6.039c3.822 7.761 11.803 13.072 21.091 13.072 5.731 0 11.204-2.036 15.311-5.849l-7.507-5.804c-2.118 1.335-4.786 2.053-7.804 2.053" fill="#34A853"/><path d="M46.145 24c0-1.387-.213-2.88-.534-4.267H23.714V28.8h12.604c-.63 3.091-2.346 5.468-4.8 7.014l7.507 5.804C43.339 37.614 46.145 31.65 46.145 24" fill="#4285F4"/></svg>
