<svg xmlns="http://www.w3.org/2000/svg" viewBox="0 0 64 64">
  <defs>
    <linearGradient id="g" x1="8" y1="6" x2="56" y2="58" gradientUnits="userSpaceOnUse">
      <stop stop-color="#0aa083"/>
      <stop offset="1" stop-color="#075f55"/>
    </linearGradient>
  </defs>
  <rect width="64" height="64" rx="15" fill="url(#g)"/>
  <path d="M32 17c-8.3 0-15 6.7-15 15m30-2.8A15 15 0 0 0 22.7 20M18 40h.1M44.8 44.8c1.2-4.3 1.5-9.4.7-13.8M23.4 51c2.1-5.8 2.6-12.2 2.6-19a6 6 0 0 1 12 0c0 8.7-.3 15-2.3 21M31 53c1.7-5.8 2-12.4 2-21" fill="none" stroke="#fff" stroke-width="4" stroke-linecap="round"/>
</svg>
